<?xml version="1.0" encoding="UTF-8"?> <!-- Generator: Adobe Illustrator 21.1.0, SVG Export Plug-In . SVG Version: 6.00 Build 0) --> <svg xmlns="http://www.w3.org/2000/svg" xmlns:xlink="http://www.w3.org/1999/xlink" id="Layer_1" x="0px" y="0px" width="160px" height="200px" viewBox="0 0 160 200" style="enable-background:new 0 0 160 200;" xml:space="preserve"> <style type="text/css"> .st0{fill:#ED9235;} </style> <title>marguerite_bourgeoys_3_10_1_ico</title> <g id="f1093cb1-e425-4cbc-9b2f-464d31b55b93"> <path class="st0" d="M149.6,57.5H139v-11c0-2.5-1.9-4.6-4.4-5c-7.8-0.9-15.6-0.7-23.3,0.7C97.3,44.7,86.2,51,78.7,60.4 C71.1,51,60,44.7,46.1,42.2c-7.7-1.4-15.6-1.6-23.3-0.7c-2.5,0.4-4.3,2.5-4.3,5v11H7.8c-2.8,0-5.1,2.3-5.1,5.1v96 c0,0.9,0.2,1.9,0.7,2.7c1.2,2.1,3.8,3,6.1,2.2c0.4-0.1,38.6-13.2,67.1-0.2c1.3,0.6,2.9,0.6,4.2,0c28.4-13,66.7,0,67.1,0.2 c2.7,0.9,5.6-0.5,6.5-3.1c0.2-0.6,0.3-1.2,0.3-1.8v-96C154.7,59.8,152.4,57.5,149.6,57.5L149.6,57.5L149.6,57.5z M12.9,151.9V67.7 h5.6v67.9c-0.1,2.8,2.2,5.1,5,5.2c0.3,0,0.6,0,0.9-0.1c0.3,0,22.4-3.1,38.6,8C42.9,145.3,23,149.2,12.9,151.9L12.9,151.9z M73.6,144.1c-7.1-6.4-16.4-10.8-27.5-12.8c-4.7-0.9-9.5-1.3-14.2-1.3c-1.2,0-2.3,0-3.2,0.1v-79c9.8-0.4,33.7,0.6,45,19.8 L73.6,144.1z M83.8,70.9c11.3-19.1,35.2-20.2,45-19.8v79c-5.8-0.2-11.7,0.2-17.5,1.2c-11.1,2-20.4,6.4-27.5,12.8L83.8,70.9z M94.5,148.7c16.2-11.1,38.4-8.1,38.6-8c2.4,0.4,4.7-1,5.6-3.3c0.2-0.6,0.3-1.2,0.3-1.8V67.7h5.5v84.2 C134.4,149.2,114.4,145.3,94.5,148.7L94.5,148.7z"></path> </g> </svg> 